<?xml version="1.0" encoding="UTF-8"?>
<svg id="Layer_2" data-name="Layer 2" xmlns="http://www.w3.org/2000/svg" viewBox="0 0 1543.6 269.57">
  <defs>
    <style>
      .cls-1 {
        fill: #fff;
      }

      .cls-1, .cls-2 {
        stroke-width: 0px;
      }

      .cls-2 {
        fill: #00acb4;
      }
    </style>
  </defs>
  <g id="Layer_1-2" data-name="Layer 1">
    <g>
      <g>
        <path class="cls-1" d="m480.35,71.64h-53.14v-28.72h137.87v28.72h-53.14v138.83h-31.6V71.64Z"/>
        <path class="cls-1" d="m574.66,161.88c1.92,14.6,14.6,25.13,35.19,25.13,10.77,0,24.89-4.07,31.59-11.01l18.67,18.43c-12.45,12.92-32.79,19.15-50.74,19.15-40.69,0-64.87-25.13-64.87-62.95s24.42-61.75,62.71-61.75,64.15,24.42,59.6,73h-92.15Zm64.15-24.17c-1.91-15.32-13.88-22.98-30.64-22.98-15.8,0-28.72,7.66-33.03,22.98h63.67Z"/>
        <path class="cls-1" d="m715.41,43.16v96.7l39.73-47.39h34.95v1.67l-48.11,53.86,54.81,60.32v2.16h-35.19l-46.2-53.38v53.38h-29.2V43.16h29.2Z"/>
        <path class="cls-1" d="m897.09,210.47v-61.75c0-17.95-9.81-31.6-28.48-31.6s-30.16,15.08-30.16,33.03v60.32h-28.96v-118.24h26.09l1.92,16.04c11.97-11.73,23.94-17.71,38.78-17.71,27.77,0,50.03,20.82,50.03,57.93v61.99h-29.2Z"/>
        <path class="cls-1" d="m1068.71,151.59c0,33.99-23.22,61.51-61.51,61.51s-61.28-27.52-61.28-61.51,23.46-61.51,61.04-61.51,61.75,27.77,61.75,61.51Zm-93.59,0c0,17.95,10.77,34.71,32.07,34.71s32.07-16.75,32.07-34.71-12.45-34.95-32.07-34.95c-21.06,0-32.07,17.24-32.07,34.95Z"/>
        <path class="cls-1" d="m1189.35,193.96c-11.97,11.97-27.53,17.71-43.08,17.71-33.27,0-60.8-22.98-60.8-60.32s26.57-60.32,60.8-60.32c15.56,0,31.12,5.99,43.08,17.71l-7.66,7.42c-9.57-9.57-22.74-14.12-35.43-14.12-26.81,0-49.31,17.47-49.31,49.31s22.5,49.31,49.31,49.31c12.69,0,25.61-5.03,35.19-14.6l7.9,7.9Z"/>
        <path class="cls-1" d="m1314.3,92.23l-72.05,167.55h-12.45l21.78-50.74-47.39-116.8h12.69l27.53,69.89,13.88,34.23,13.64-34.47,29.68-69.65h12.69Z"/>
        <path class="cls-1" d="m1364.09,56.56v35.67h40.21v9.81h-40.21v72.05c0,16.04,3.35,27.29,21.78,27.29,5.74,0,12.21-1.91,18.19-4.79l4.07,9.57c-7.42,3.59-14.84,5.98-22.26,5.98-25.13,0-33.27-14.84-33.27-38.06v-72.05h-25.13v-9.81h25.13v-34.47l11.49-1.2Z"/>
        <path class="cls-1" d="m1424.65,151.35c0-35.43,26.81-61.04,60.08-61.04s62.95,20.35,58.4,66.54h-106.51c2.39,27.77,23.7,43.8,48.11,43.8,15.56,0,33.75-6.22,42.61-17.95l8.38,6.7c-11.49,15.08-32.07,22.74-50.98,22.74-33.27,0-60.08-23.22-60.08-60.8Zm107.95-4.79c-.24-29.2-19.39-45.48-47.87-45.48-24.41,0-45.48,16.52-48.11,45.48h95.98Z"/>
      </g>
      <g>
        <path class="cls-1" d="m55.38,97.52c.08,17.11.15,28.42-19.55,34.21l-11.22,3.29,11.26,3.15c19.66,5.5,19.6,16.81,19.51,33.94v45.3c0,10.72,1.06,18.82,6.22,23.45,4.73,4.24,12.1,4.85,21.68,4.06v23.27c-20.55,3.29-36.15.64-46.44-7.94-9.88-8.24-14.9-22.03-14.9-40.97v-43.91c0-7,0-27.65-21.94-29.54v-22.11c21.94-1.9,21.94-22.55,21.94-29.54v-43.91c0-18.94,5.02-32.73,14.9-40.97C47.13.74,62.73-1.92,83.28,1.37v22.75c-8.77-1.69-15.1-.79-19.71,2.77-5.59,4.31-8.19,12.35-8.19,25.28v45.35Z"/>
        <path class="cls-1" d="m370.17,123.73v22.11c-21.94,1.9-21.94,22.55-21.94,29.54v43.91c0,18.94-5.02,32.73-14.9,40.97-10.27,8.57-25.89,11.24-46.42,7.94v-23.27c9.56.79,16.95.18,21.68-4.06,5.17-4.63,6.22-12.73,6.22-23.45v-42.03l-.02-3.27c-.08-17.13-.13-28.44,19.51-33.94l11.27-3.15-11.24-3.29c-19.68-5.79-19.63-17.1-19.55-34.21.02-1.11.02-2.21.02-3.34v-42.01c0-12.94-2.6-20.97-8.2-25.28-4.6-3.56-10.92-4.46-19.7-2.77V1.37c20.54-3.31,36.15-.64,46.42,7.94,9.88,8.24,14.9,22.03,14.9,40.97v43.91c0,7,0,27.65,21.94,29.54Z"/>
        <circle class="cls-2" cx="190.65" cy="137.71" r="27.58"/>
        <path class="cls-2" d="m124.17,158.17c0,3.74-1.61,7.11-4.16,9.46-2.28,2.1-5.34,3.37-8.67,3.37-.29,0-.57-.02-.84-.03-6.71-.44-12-6.01-12-12.8,0-3.03,1.04-5.82,2.79-8.01s2.84-5.03,2.69-7.93c-.08-1.5-.12-3.01-.12-4.53,0-4.16.29-8.24.86-12.24.42-2.98-.25-5.97-1.85-8.52-1.96-3.13-2.61-7.17-1.17-11.33,1.75-5.06,6.7-8.33,12.06-8.33h.1c3.64.03,6.93,1.58,9.26,4.06,2.15,2.3,3.47,5.39,3.47,8.79,0,4.73-2.57,8.87-6.4,11.1-3.35,1.95-5.57,5.41-5.93,9.28-.22,2.37-.34,4.77-.34,7.19,0,.16,0,.33,0,.49.02,3.9,2.09,7.4,5.19,9.77,3.07,2.34,5.04,6.04,5.04,10.2Z"/>
        <path class="cls-2" d="m241.61,185.05c3.24-1.87,6.97-2.16,10.27-1.13,2.96.93,5.59,2.93,7.26,5.83.14.25.27.5.39.74,2.98,6.03.8,13.39-5.09,16.79-2.62,1.52-5.56,2-8.34,1.59s-5.78.05-8.21,1.63c-1.26.82-2.55,1.61-3.86,2.37-3.6,2.08-7.29,3.87-11.03,5.38-2.79,1.12-5.05,3.2-6.46,5.86-1.73,3.26-4.9,5.85-9.22,6.68-5.26,1.01-10.56-1.64-13.24-6.28l-.05-.09c-1.79-3.17-2.1-6.79-1.11-10.05.92-3.01,2.93-5.7,5.88-7.4,4.1-2.37,8.97-2.21,12.81,0,3.37,1.93,7.47,2.11,11,.5,2.16-.99,4.3-2.09,6.4-3.3.14-.08.28-.16.43-.25,3.37-1.97,5.36-5.51,5.87-9.38s2.71-7.39,6.32-9.47Z"/>
        <path class="cls-2" d="m206.17,69.9c-3.24-1.87-5.36-4.95-6.11-8.33-.68-3.02-.25-6.31,1.42-9.2.14-.25.3-.49.45-.71,3.73-5.59,11.2-7.39,17.08-3.99,2.62,1.52,4.51,3.81,5.54,6.43,1.06,2.7,2.94,4.98,5.52,6.3,1.34.68,2.67,1.4,3.98,2.16,3.6,2.08,6.99,4.38,10.17,6.87,2.37,1.85,5.3,2.77,8.3,2.66,3.69-.13,7.52,1.32,10.4,4.65,3.51,4.05,3.86,9.96,1.18,14.6l-.05.09c-1.85,3.14-4.83,5.21-8.15,5.99-3.06.71-6.4.31-9.35-1.39-4.1-2.37-6.4-6.67-6.41-11.09-.01-3.88-1.91-7.53-5.07-9.77-1.94-1.38-3.96-2.68-6.06-3.89-.14-.08-.28-.16-.43-.25-3.39-1.93-7.46-1.89-11.06-.39s-7.75,1.34-11.36-.74Z"/>
        <path class="cls-2" d="m159,108.21c-2.39,1.25-5.09,1.36-7.44.51-2.11-.75-3.94-2.28-5.06-4.41-.1-.18-.18-.37-.26-.55-1.97-4.43-.18-9.68,4.16-11.96,1.94-1.02,4.07-1.28,6.06-.9s4.17.13,5.97-.94c.93-.55,1.88-1.08,2.85-1.59,2.66-1.39,5.37-2.58,8.11-3.55,2.04-.73,3.73-2.16,4.83-4.04,1.34-2.3,3.71-4.07,6.84-4.55,3.82-.58,7.57,1.49,9.36,4.91l.03.06c1.2,2.34,1.32,4.96.51,7.28-.75,2.14-2.28,4.02-4.45,5.17-3.02,1.59-6.53,1.33-9.24-.37-2.37-1.49-5.33-1.74-7.91-.68-1.59.65-3.16,1.38-4.71,2.2-.11.06-.21.11-.31.17-2.48,1.32-4.03,3.82-4.5,6.59s-2.17,5.25-4.83,6.64Z"/>
        <path class="cls-2" d="m180.93,179.87c2.28,1.44,3.72,3.73,4.17,6.19.4,2.2,0,4.55-1.29,6.59-.11.17-.23.34-.34.5-2.85,3.92-8.29,5-12.43,2.38-1.85-1.17-3.14-2.88-3.81-4.79-.69-1.98-1.97-3.68-3.8-4.7-.95-.53-1.88-1.09-2.81-1.67-2.54-1.6-4.91-3.36-7.13-5.25-1.65-1.41-3.74-2.15-5.91-2.16-2.67-.01-5.38-1.17-7.36-3.65-2.41-3.02-2.49-7.3-.43-10.56l.04-.06c1.42-2.21,3.63-3.62,6.05-4.08,2.23-.42,4.62-.04,6.7,1.27,2.89,1.83,4.42,4.99,4.3,8.18-.1,2.8,1.15,5.48,3.37,7.19,1.36,1.05,2.78,2.05,4.26,2.98.1.06.2.13.3.19,2.39,1.49,5.32,1.58,7.96.6,2.61-.97,5.63-.74,8.17.86Z"/>
        <path class="cls-2" d="m232.02,125.05c.11-2.7,1.37-5.08,3.28-6.7,1.71-1.45,3.94-2.28,6.35-2.18.21,0,.41.03.6.05,4.83.51,8.47,4.68,8.28,9.58-.09,2.19-.92,4.16-2.25,5.7-1.37,1.58-2.2,3.55-2.17,5.64.01,1.08,0,2.17-.05,3.27-.12,3-.45,5.94-.98,8.8-.39,2.13,0,4.31,1.08,6.2,1.32,2.31,1.67,5.25.52,8.2-1.41,3.6-5.07,5.81-8.94,5.65h-.07c-2.62-.13-4.95-1.34-6.56-3.2-1.48-1.72-2.35-3.98-2.25-6.44.14-3.41,2.11-6.32,4.94-7.82,2.47-1.31,4.17-3.74,4.54-6.52.23-1.7.38-3.43.45-5.18,0-.12,0-.24.01-.36.1-2.81-1.29-5.4-3.46-7.2-2.14-1.78-3.46-4.5-3.34-7.5Z"/>
        <circle class="cls-2" cx="152.12" cy="59.5" r="12.86"/>
        <circle class="cls-2" cx="279.38" cy="140.05" r="7.52"/>
        <circle class="cls-2" cx="142.82" cy="216.45" r="16.63"/>
      </g>
    </g>
  </g>
</svg>